<svg width="428" height="926" viewBox="0 0 428 926" fill="none" xmlns="http://www.w3.org/2000/svg">
<g clip-path="url(#clip0_141_1020)">
<rect width="428" height="926" rx="40" fill="white"/>
<rect x="-98" y="153" width="225" height="149.899" rx="20" fill="#F8F8F8"/>
<rect x="139" y="78" width="150" height="225" rx="20" fill="#F8F8F8"/>
<rect x="139" y="-151" width="150" height="216.535" rx="20" fill="#F8F8F8"/>
<rect x="-23" y="-88" width="150" height="225" rx="20" fill="#F8F8F8"/>
<rect x="301" y="-9" width="225" height="149.899" rx="20" fill="#F8F8F8"/>
<rect x="301" y="153" width="150" height="150" rx="20" fill="#F8F8F8"/>
<path d="M52.35 364L47.4 351.22L49.77 345.34L55.74 360.61H56.07L58.92 352.99C59.28 352.09 59.54 351.25 59.7 350.47C59.88 349.69 59.97 348.98 59.97 348.34C59.97 347.54 59.83 346.79 59.55 346.09C59.27 345.39 58.85 344.78 58.29 344.26C57.75 343.72 57.05 343.32 56.19 343.06V342.76H64.95V343.06L63.15 343.51L55.17 364H52.35ZM39.96 364L31.95 343.42L30.21 343.06V342.76H38.82V343.06L36.66 343.39L43.35 360.61H43.68L46.5 353.08C46.86 352.2 47.13 351.34 47.31 350.5C47.49 349.64 47.58 348.86 47.58 348.16C47.58 346.88 47.27 345.81 46.65 344.95C46.03 344.07 45.08 343.44 43.8 343.06V342.76H52.59V343.06L50.79 343.42L42.78 364H39.96ZM71.8216 348.55C73.4816 348.55 74.8516 348.88 75.9316 349.54C77.0116 350.2 77.8216 351.08 78.3616 352.18C78.9016 353.28 79.1716 354.52 79.1716 355.9H67.8016V355.6L75.2716 355.21C75.2716 353.87 75.1516 352.73 74.9116 351.79C74.6716 350.85 74.2916 350.14 73.7716 349.66C73.2716 349.16 72.6116 348.91 71.7916 348.91C70.9916 348.91 70.2916 349.17 69.6916 349.69C69.1116 350.21 68.6616 351 68.3416 352.06C68.0416 353.1 67.8916 354.44 67.8916 356.08C67.8916 356.98 68.0016 357.85 68.2216 358.69C68.4616 359.51 68.8016 360.26 69.2416 360.94C69.7016 361.6 70.2616 362.13 70.9216 362.53C71.5816 362.91 72.3516 363.1 73.2316 363.1C73.7716 363.1 74.3116 363.02 74.8516 362.86C75.3916 362.7 75.9016 362.47 76.3816 362.17C76.8616 361.87 77.3016 361.51 77.7016 361.09C78.1016 360.65 78.4316 360.14 78.6916 359.56L79.0216 359.86C78.5616 360.8 78.0316 361.57 77.4316 362.17C76.8516 362.77 76.2216 363.24 75.5416 363.58C74.8616 363.9 74.1716 364.12 73.4716 364.24C72.7716 364.38 72.0816 364.45 71.4016 364.45C70.1616 364.45 69.0616 364.24 68.1016 363.82C67.1416 363.4 66.3216 362.83 65.6416 362.11C64.9816 361.37 64.4716 360.54 64.1116 359.62C63.7716 358.68 63.6016 357.71 63.6016 356.71C63.6016 355.45 63.8016 354.32 64.2016 353.32C64.6216 352.32 65.1916 351.47 65.9116 350.77C66.6516 350.05 67.5216 349.5 68.5216 349.12C69.5216 348.74 70.6216 348.55 71.8216 348.55ZM87.1441 363.4L88.7641 363.7V364H81.3241V363.7L82.9441 363.4V343.06H81.1741V342.73L87.1441 341.65V363.4ZM98.4998 364.45C96.9998 364.45 95.6598 364.12 94.4798 363.46C93.3198 362.8 92.4098 361.89 91.7498 360.73C91.0898 359.55 90.7598 358.21 90.7598 356.71C90.7598 355.45 90.9698 354.32 91.3898 353.32C91.8098 352.32 92.4098 351.47 93.1898 350.77C93.9698 350.05 94.9098 349.5 96.0098 349.12C97.1098 348.74 98.3398 348.55 99.6998 348.55C100.5 348.55 101.27 348.64 102.01 348.82C102.77 348.98 103.45 349.23 104.05 349.57C104.65 349.89 105.12 350.3 105.46 350.8C105.82 351.28 106 351.84 106 352.48C106 352.92 105.87 353.3 105.61 353.62C105.35 353.92 105 354.15 104.56 354.31C104.12 354.45 103.62 354.52 103.06 354.52C102.22 354.52 101.51 354.35 100.93 354.01C100.35 353.67 100.06 353.17 100.06 352.51C100.06 352.07 100.21 351.68 100.51 351.34C100.81 351 101.23 350.76 101.77 350.62C102.67 350.36 103.12 350.12 103.12 349.9C103.12 349.76 103 349.61 102.76 349.45C102.52 349.29 102.18 349.16 101.74 349.06C101.32 348.96 100.82 348.91 100.24 348.91C99.4398 348.91 98.7198 349.1 98.0798 349.48C97.4398 349.84 96.8898 350.35 96.4298 351.01C95.9698 351.65 95.6098 352.39 95.3498 353.23C95.1098 354.07 94.9898 354.97 94.9898 355.93C94.9898 357.03 95.1198 358.02 95.3798 358.9C95.6398 359.78 96.0098 360.54 96.4898 361.18C96.9698 361.8 97.5498 362.28 98.2298 362.62C98.9298 362.94 99.6998 363.1 100.54 363.1C101.28 363.1 102 362.97 102.7 362.71C103.4 362.43 104.04 362.03 104.62 361.51C105.2 360.97 105.67 360.32 106.03 359.56L106.36 359.86C105.86 360.82 105.31 361.6 104.71 362.2C104.11 362.8 103.47 363.27 102.79 363.61C102.11 363.93 101.41 364.15 100.69 364.27C99.9698 364.39 99.2398 364.45 98.4998 364.45ZM116.788 348.55C118.088 348.55 119.238 348.74 120.238 349.12C121.238 349.5 122.078 350.05 122.758 350.77C123.438 351.49 123.948 352.35 124.288 353.35C124.648 354.33 124.828 355.42 124.828 356.62C124.828 357.72 124.648 358.75 124.288 359.71C123.948 360.65 123.438 361.48 122.758 362.2C122.078 362.9 121.238 363.45 120.238 363.85C119.258 364.25 118.108 364.45 116.788 364.45C115.468 364.45 114.298 364.25 113.278 363.85C112.278 363.45 111.438 362.9 110.758 362.2C110.098 361.48 109.598 360.65 109.258 359.71C108.918 358.75 108.748 357.72 108.748 356.62C108.748 355.42 108.928 354.33 109.288 353.35C109.668 352.35 110.198 351.49 110.878 350.77C111.578 350.05 112.428 349.5 113.428 349.12C114.428 348.74 115.548 348.55 116.788 348.55ZM116.818 348.91C115.958 348.91 115.248 349.25 114.688 349.93C114.128 350.61 113.708 351.53 113.428 352.69C113.168 353.85 113.038 355.16 113.038 356.62C113.038 357.64 113.108 358.61 113.248 359.53C113.388 360.43 113.608 361.22 113.908 361.9C114.228 362.58 114.628 363.12 115.108 363.52C115.588 363.9 116.148 364.09 116.788 364.09C117.428 364.09 117.978 363.9 118.438 363.52C118.918 363.14 119.318 362.61 119.638 361.93C119.958 361.23 120.188 360.43 120.328 359.53C120.468 358.63 120.538 357.66 120.538 356.62C120.538 355.54 120.468 354.53 120.328 353.59C120.188 352.65 119.968 351.83 119.668 351.13C119.368 350.43 118.978 349.89 118.498 349.51C118.038 349.11 117.478 348.91 116.818 348.91ZM127.145 364V363.7L128.765 363.31V350.2H127.025V349.87L132.965 348.82V353.47L133.205 353.68C133.645 352.7 134.165 351.83 134.765 351.07C135.365 350.29 136.045 349.68 136.805 349.24C137.565 348.78 138.405 348.55 139.325 348.55C140.065 348.55 140.705 348.66 141.245 348.88C141.805 349.1 142.265 349.43 142.625 349.87C142.985 350.29 143.255 350.82 143.435 351.46C143.615 352.08 143.705 352.8 143.705 353.62V363.31L145.295 363.7V364H137.915V363.7L139.505 363.31V353.23C139.505 352.17 139.325 351.37 138.965 350.83C138.605 350.29 138.095 350.02 137.435 350.02C136.975 350.02 136.525 350.2 136.085 350.56C135.665 350.9 135.255 351.34 134.855 351.88C134.455 352.42 134.095 352.98 133.775 353.56C133.455 354.14 133.185 354.68 132.965 355.18V363.31L134.555 363.7V364H127.145ZM148.655 364V363.7L150.245 363.31V353.23C150.245 352.17 150.065 351.37 149.705 350.83C149.345 350.29 148.825 350.02 148.145 350.02C147.705 350.02 147.265 350.2 146.825 350.56C146.385 350.9 145.965 351.34 145.565 351.88C145.165 352.42 144.805 352.98 144.485 353.56C144.165 354.14 143.905 354.68 143.705 355.18V353.47L143.945 353.68C144.365 352.7 144.875 351.83 145.475 351.07C146.075 350.29 146.755 349.68 147.515 349.24C148.295 348.78 149.145 348.55 150.065 348.55C150.885 348.55 151.575 348.68 152.135 348.94C152.695 349.18 153.135 349.54 153.455 350.02C153.795 350.48 154.045 351.04 154.205 351.7C154.365 352.34 154.445 353.05 154.445 353.83V363.31L156.185 363.7V364H148.655ZM166.275 348.55C167.935 348.55 169.305 348.88 170.385 349.54C171.465 350.2 172.275 351.08 172.815 352.18C173.355 353.28 173.625 354.52 173.625 355.9H162.255V355.6L169.725 355.21C169.725 353.87 169.605 352.73 169.365 351.79C169.125 350.85 168.745 350.14 168.225 349.66C167.725 349.16 167.065 348.91 166.245 348.91C165.445 348.91 164.745 349.17 164.145 349.69C163.565 350.21 163.115 351 162.795 352.06C162.495 353.1 162.345 354.44 162.345 356.08C162.345 356.98 162.455 357.85 162.675 358.69C162.915 359.51 163.255 360.26 163.695 360.94C164.155 361.6 164.715 362.13 165.375 362.53C166.035 362.91 166.805 363.1 167.685 363.1C168.225 363.1 168.765 363.02 169.305 362.86C169.845 362.7 170.355 362.47 170.835 362.17C171.315 361.87 171.755 361.51 172.155 361.09C172.555 360.65 172.885 360.14 173.145 359.56L173.475 359.86C173.015 360.8 172.485 361.57 171.885 362.17C171.305 362.77 170.675 363.24 169.995 363.58C169.315 363.9 168.625 364.12 167.925 364.24C167.225 364.38 166.535 364.45 165.855 364.45C164.615 364.45 163.515 364.24 162.555 363.82C161.595 363.4 160.775 362.83 160.095 362.11C159.435 361.37 158.925 360.54 158.565 359.62C158.225 358.68 158.055 357.71 158.055 356.71C158.055 355.45 158.255 354.32 158.655 353.32C159.075 352.32 159.645 351.47 160.365 350.77C161.105 350.05 161.975 349.5 162.975 349.12C163.975 348.74 165.075 348.55 166.275 348.55ZM191.564 364.45C190.304 364.45 189.404 364.09 188.864 363.37C188.324 362.65 188.054 361.57 188.054 360.13V349.6H186.014V349.3L188.084 349L191.804 344.08H192.254V348.73L195.344 349.3V349.6H192.254V361.51C192.254 362.21 192.354 362.72 192.554 363.04C192.774 363.34 193.064 363.49 193.424 363.49C193.744 363.49 194.054 363.39 194.354 363.19C194.654 362.97 194.954 362.7 195.254 362.38L195.344 362.8C195.124 363 194.864 363.2 194.564 363.4C194.284 363.6 193.984 363.78 193.664 363.94C193.344 364.1 193.004 364.22 192.644 364.3C192.304 364.4 191.944 364.45 191.564 364.45ZM204.796 348.55C206.096 348.55 207.246 348.74 208.246 349.12C209.246 349.5 210.086 350.05 210.766 350.77C211.446 351.49 211.956 352.35 212.296 353.35C212.656 354.33 212.836 355.42 212.836 356.62C212.836 357.72 212.656 358.75 212.296 359.71C211.956 360.65 211.446 361.48 210.766 362.2C210.086 362.9 209.246 363.45 208.246 363.85C207.266 364.25 206.116 364.45 204.796 364.45C203.476 364.45 202.306 364.25 201.286 363.85C200.286 363.45 199.446 362.9 198.766 362.2C198.106 361.48 197.606 360.65 197.266 359.71C196.926 358.75 196.756 357.72 196.756 356.62C196.756 355.42 196.936 354.33 197.296 353.35C197.676 352.35 198.206 351.49 198.886 350.77C199.586 350.05 200.436 349.5 201.436 349.12C202.436 348.74 203.556 348.55 204.796 348.55ZM204.826 348.91C203.966 348.91 203.256 349.25 202.696 349.93C202.136 350.61 201.716 351.53 201.436 352.69C201.176 353.85 201.046 355.16 201.046 356.62C201.046 357.64 201.116 358.61 201.256 359.53C201.396 360.43 201.616 361.22 201.916 361.9C202.236 362.58 202.636 363.12 203.116 363.52C203.596 363.9 204.156 364.09 204.796 364.09C205.436 364.09 205.986 363.9 206.446 363.52C206.926 363.14 207.326 362.61 207.646 361.93C207.966 361.23 208.196 360.43 208.336 359.53C208.476 358.63 208.546 357.66 208.546 356.62C208.546 355.54 208.476 354.53 208.336 353.59C208.196 352.65 207.976 351.83 207.676 351.13C207.376 350.43 206.986 349.89 206.506 349.51C206.046 349.11 205.486 348.91 204.826 348.91Z" fill="#333333"/>
<path d="M31.48 405L50.48 377.28H39.24C38.6533 377.28 38.12 377.453 37.64 377.8C37.16 378.147 36.7333 378.72 36.36 379.52C36.0133 380.32 35.7067 381.4 35.44 382.76L34.4 387.48H33.84L32.64 376.68H55.8L36.76 404.4H48.52C49.1867 404.4 49.7733 404.2 50.28 403.8C50.8133 403.4 51.2667 402.72 51.64 401.76C52.04 400.8 52.36 399.493 52.6 397.84L53.28 393.84H53.88L55.16 405H31.48ZM63.2256 381.16C62.5323 381.16 61.919 381.053 61.3856 380.84C60.8523 380.627 60.439 380.333 60.1456 379.96C59.8523 379.587 59.7056 379.16 59.7056 378.68C59.7056 378.173 59.8523 377.747 60.1456 377.4C60.439 377.027 60.8523 376.733 61.3856 376.52C61.919 376.307 62.5323 376.2 63.2256 376.2C63.919 376.2 64.5323 376.307 65.0656 376.52C65.599 376.733 66.0123 377.027 66.3056 377.4C66.6256 377.747 66.7856 378.173 66.7856 378.68C66.7856 379.16 66.6256 379.587 66.3056 379.96C66.0123 380.333 65.599 380.627 65.0656 380.84C64.5323 381.053 63.919 381.16 63.2256 381.16ZM59.0256 405V404.6L61.2656 404.2V386.2H58.7856V385.76L65.6656 384.4V404.2L67.8656 404.6V405H59.0256ZM77.0094 405.6C75.596 405.6 74.5694 405.187 73.9294 404.36C73.316 403.507 73.0094 402.213 73.0094 400.48V385.8H70.1694V385.4L73.0494 385L76.8494 378.44H77.4094V384.72L81.6894 385.4V385.8H77.4094V401.88C77.4094 402.813 77.5427 403.48 77.8094 403.88C78.076 404.28 78.436 404.48 78.8894 404.48C79.3694 404.48 79.8227 404.32 80.2494 404C80.7027 403.653 81.156 403.227 81.6094 402.72L81.7694 403.2C81.5027 403.493 81.1827 403.787 80.8094 404.08C80.4627 404.347 80.076 404.6 79.6494 404.84C79.2494 405.08 78.8227 405.267 78.3694 405.4C77.9427 405.533 77.4894 405.6 77.0094 405.6ZM94.3094 384.4C95.9627 384.4 97.4294 384.653 98.7094 385.16C100.016 385.667 101.109 386.4 101.989 387.36C102.869 388.293 103.536 389.427 103.989 390.76C104.443 392.067 104.669 393.533 104.669 395.16C104.669 396.68 104.443 398.08 103.989 399.36C103.536 400.613 102.869 401.72 101.989 402.68C101.109 403.613 100.029 404.333 98.7494 404.84C97.4694 405.347 95.9894 405.6 94.3094 405.6C92.6027 405.6 91.096 405.347 89.7894 404.84C88.5094 404.333 87.4294 403.613 86.5494 402.68C85.6694 401.72 85.0027 400.613 84.5494 399.36C84.1227 398.08 83.9094 396.68 83.9094 395.16C83.9094 393.533 84.1494 392.067 84.6294 390.76C85.1094 389.427 85.7894 388.293 86.6694 387.36C87.576 386.4 88.6694 385.667 89.9494 385.16C91.2294 384.653 92.6827 384.4 94.3094 384.4ZM94.3094 384.92C93.0027 384.92 91.9094 385.36 91.0294 386.24C90.176 387.12 89.5227 388.333 89.0694 389.88C88.6427 391.427 88.4294 393.187 88.4294 395.16C88.4294 396.573 88.536 397.88 88.7494 399.08C88.9894 400.28 89.3494 401.333 89.8294 402.24C90.336 403.147 90.9627 403.853 91.7094 404.36C92.456 404.84 93.3227 405.08 94.3094 405.08C95.2694 405.08 96.1094 404.84 96.8294 404.36C97.576 403.853 98.2027 403.16 98.7094 402.28C99.216 401.373 99.5894 400.32 99.8294 399.12C100.069 397.893 100.189 396.573 100.189 395.16C100.189 393.667 100.069 392.307 99.8294 391.08C99.5894 389.827 99.2294 388.747 98.7494 387.84C98.2694 386.907 97.656 386.187 96.9094 385.68C96.1627 385.173 95.296 384.92 94.3094 384.92ZM108.283 413V412.6L110.523 412.12V386.4H108.043V386L114.923 384.4V390.68L115.243 391C115.537 390.227 115.91 389.453 116.363 388.68C116.843 387.88 117.403 387.16 118.043 386.52C118.683 385.88 119.403 385.373 120.203 385C121.003 384.6 121.897 384.4 122.883 384.4C124.51 384.4 125.923 384.84 127.123 385.72C128.35 386.6 129.297 387.813 129.963 389.36C130.63 390.907 130.963 392.667 130.963 394.64C130.963 396.987 130.563 398.987 129.763 400.64C128.99 402.267 127.923 403.507 126.563 404.36C125.23 405.187 123.723 405.6 122.043 405.6C120.87 405.6 119.79 405.4 118.803 405C117.817 404.573 116.99 404.04 116.323 403.4C115.683 402.733 115.217 402.053 114.923 401.36V412.12L117.363 412.6V413H108.283ZM120.363 404.44C121.617 404.44 122.683 404.04 123.563 403.24C124.47 402.413 125.177 401.307 125.683 399.92C126.217 398.533 126.483 396.947 126.483 395.16C126.483 393.187 126.27 391.533 125.843 390.2C125.417 388.84 124.817 387.813 124.043 387.12C123.27 386.4 122.363 386.04 121.323 386.04C120.497 386.04 119.75 386.24 119.083 386.64C118.443 387.013 117.857 387.547 117.323 388.24C116.817 388.933 116.363 389.733 115.963 390.64C115.563 391.547 115.217 392.533 114.923 393.6V397.92C114.923 398.693 115.043 399.467 115.283 400.24C115.55 401.013 115.91 401.72 116.363 402.36C116.843 402.973 117.417 403.48 118.083 403.88C118.777 404.253 119.537 404.44 120.363 404.44Z" fill="#777777"/>
<rect x="30" y="629" width="368" height="54" rx="15" fill="#777777"/>
<path d="M195.621 662V650.022H196.75V660.971H202.751V662H195.621ZM207.25 662.158C204.893 662.149 203.315 660.423 203.315 657.684V657.667C203.315 654.928 204.901 653.209 207.25 653.209C209.591 653.209 211.185 654.919 211.185 657.667V657.684C211.185 660.431 209.599 662.158 207.25 662.158ZM207.258 661.178C208.943 661.178 210.064 659.867 210.064 657.684V657.667C210.064 655.484 208.935 654.189 207.25 654.189C205.565 654.189 204.444 655.492 204.444 657.667V657.684C204.444 659.875 205.557 661.17 207.258 661.178ZM216.231 665.063C214.181 665.063 212.919 664.083 212.612 662.863L212.596 662.797H213.7L213.733 662.872C214.023 663.569 214.903 664.083 216.223 664.083C217.875 664.083 218.838 663.154 218.838 661.685V660.166H218.813C218.356 661.294 217.261 662.1 215.875 662.1C213.7 662.1 212.214 660.34 212.214 657.65V657.642C212.214 654.969 213.716 653.209 215.891 653.209C217.269 653.209 218.34 654.048 218.813 655.193H218.838V653.367H219.942V661.776C219.942 663.768 218.514 665.063 216.231 665.063ZM216.09 661.12C217.717 661.12 218.838 659.726 218.838 657.65V657.642C218.838 655.575 217.709 654.189 216.09 654.189C214.422 654.189 213.343 655.559 213.343 657.642V657.65C213.343 659.759 214.422 661.12 216.09 661.12ZM222.465 651.807C222.059 651.807 221.735 651.483 221.735 651.076C221.735 650.669 222.059 650.354 222.465 650.354C222.864 650.354 223.188 650.669 223.188 651.076C223.188 651.483 222.864 651.807 222.465 651.807ZM221.909 662V653.367H223.013V662H221.909ZM224.997 662V653.367H226.093V654.836H226.126C226.558 653.907 227.529 653.218 228.923 653.218C230.833 653.218 231.961 654.446 231.961 656.472V662H230.866V656.654C230.866 655.052 230.069 654.197 228.6 654.197C227.097 654.197 226.093 655.276 226.093 656.887V662H224.997Z" fill="white"/>
<path d="M54 447.5H374C378.209 447.5 381.335 447.5 383.811 447.703C386.282 447.905 388.061 448.305 389.583 449.08C392.311 450.471 394.529 452.689 395.92 455.417C396.695 456.939 397.095 458.718 397.297 461.189C397.5 463.665 397.5 466.791 397.5 471V477C397.5 481.209 397.5 484.335 397.297 486.811C397.095 489.282 396.695 491.061 395.92 492.583C394.529 495.311 392.311 497.529 389.583 498.92C388.061 499.695 386.282 500.095 383.811 500.297C381.335 500.5 378.209 500.5 374 500.5H54C49.7914 500.5 46.6649 500.5 44.1887 500.297C41.7184 500.095 39.9392 499.695 38.4171 498.92C35.6888 497.529 33.4706 495.311 32.0804 492.583C31.3049 491.061 30.9045 489.282 30.7027 486.811C30.5004 484.335 30.5 481.209 30.5 477V471C30.5 466.791 30.5004 463.665 30.7027 461.189C30.9045 458.718 31.3049 456.939 32.0804 455.417C33.4706 452.689 35.6888 450.471 38.4171 449.08C39.9392 448.305 41.7184 447.905 44.1887 447.703C46.6649 447.5 49.7914 447.5 54 447.5Z" fill="#F8F8F8"/>
<path d="M54 447.5H374C378.209 447.5 381.335 447.5 383.811 447.703C386.282 447.905 388.061 448.305 389.583 449.08C392.311 450.471 394.529 452.689 395.92 455.417C396.695 456.939 397.095 458.718 397.297 461.189C397.5 463.665 397.5 466.791 397.5 471V477C397.5 481.209 397.5 484.335 397.297 486.811C397.095 489.282 396.695 491.061 395.92 492.583C394.529 495.311 392.311 497.529 389.583 498.92C388.061 499.695 386.282 500.095 383.811 500.297C381.335 500.5 378.209 500.5 374 500.5H54C49.7914 500.5 46.6649 500.5 44.1887 500.297C41.7184 500.095 39.9392 499.695 38.4171 498.92C35.6888 497.529 33.4706 495.311 32.0804 492.583C31.3049 491.061 30.9045 489.282 30.7027 486.811C30.5004 484.335 30.5 481.209 30.5 477V471C30.5 466.791 30.5004 463.665 30.7027 461.189C30.9045 458.718 31.3049 456.939 32.0804 455.417C33.4706 452.689 35.6888 450.471 38.4171 449.08C39.9392 448.305 41.7184 447.905 44.1887 447.703C46.6649 447.5 49.7914 447.5 54 447.5Z" stroke="#EEEEEE"/>
<path d="M50.791 478V469.545H55.8945V470.271H51.5879V473.312H55.6777V474.027H51.5879V477.273H55.8945V478H50.791ZM57.1367 478V471.906H57.9102V472.955H57.9336C58.1855 472.281 58.8066 471.801 59.6621 471.801C60.5527 471.801 61.1973 472.316 61.4258 473.09H61.4434C61.7363 472.334 62.4336 471.801 63.3594 471.801C64.5547 471.801 65.334 472.598 65.334 473.834V478H64.5605V474.01C64.5605 473.061 64.0332 472.492 63.1484 472.492C62.2461 472.492 61.625 473.184 61.625 474.162V478H60.8457V473.939C60.8457 473.066 60.2832 472.492 59.4512 472.492C58.5547 472.492 57.9102 473.213 57.9102 474.256V478H57.1367ZM68.4453 478.111C67.2441 478.111 66.4238 477.391 66.4238 476.312V476.301C66.4238 475.264 67.209 474.637 68.6094 474.543L70.5078 474.426V473.898C70.5078 473.02 69.9512 472.486 69.002 472.486C68.1172 472.486 67.5371 472.914 67.4082 473.605L67.3965 473.664H66.6465L66.6523 473.594C66.7695 472.545 67.6367 471.795 69.0137 471.795C70.4082 471.795 71.2812 472.58 71.2812 473.828V478H70.5078V476.887H70.4844C70.1504 477.613 69.3477 478.111 68.4453 478.111ZM67.2148 476.312C67.2148 476.98 67.7773 477.432 68.6035 477.432C69.6699 477.432 70.5078 476.682 70.5078 475.709V475.035L68.7031 475.158C67.748 475.217 67.2148 475.633 67.2148 476.301V476.312ZM73.0332 470.805C72.7461 470.805 72.5176 470.576 72.5176 470.289C72.5176 470.002 72.7461 469.779 73.0332 469.779C73.3145 469.779 73.543 470.002 73.543 470.289C73.543 470.576 73.3145 470.805 73.0332 470.805ZM72.6406 478V471.906H73.4199V478H72.6406ZM74.873 478V469.545H75.6465V478H74.873Z" fill="#777777"/>
<path d="M54 521.5H374C378.209 521.5 381.335 521.5 383.811 521.703C386.282 521.905 388.061 522.305 389.583 523.08C392.311 524.471 394.529 526.689 395.92 529.417C396.695 530.939 397.095 532.718 397.297 535.189C397.5 537.665 397.5 540.791 397.5 545V551C397.5 555.209 397.5 558.335 397.297 560.811C397.095 563.282 396.695 565.061 395.92 566.583C394.529 569.311 392.311 571.529 389.583 572.92C388.061 573.695 386.282 574.095 383.811 574.297C381.335 574.5 378.209 574.5 374 574.5H54C49.7914 574.5 46.6649 574.5 44.1887 574.297C41.7184 574.095 39.9392 573.695 38.4171 572.92C35.6888 571.529 33.4706 569.311 32.0804 566.583C31.3049 565.061 30.9045 563.282 30.7027 560.811C30.5004 558.335 30.5 555.209 30.5 551V545C30.5 540.791 30.5004 537.665 30.7027 535.189C30.9045 532.718 31.3049 530.939 32.0804 529.417C33.4706 526.689 35.6888 524.471 38.4171 523.08C39.9392 522.305 41.7184 521.905 44.1887 521.703C46.6649 521.5 49.7914 521.5 54 521.5Z" fill="#F8F8F8"/>
<path d="M54 521.5H374C378.209 521.5 381.335 521.5 383.811 521.703C386.282 521.905 388.061 522.305 389.583 523.08C392.311 524.471 394.529 526.689 395.92 529.417C396.695 530.939 397.095 532.718 397.297 535.189C397.5 537.665 397.5 540.791 397.5 545V551C397.5 555.209 397.5 558.335 397.297 560.811C397.095 563.282 396.695 565.061 395.92 566.583C394.529 569.311 392.311 571.529 389.583 572.92C388.061 573.695 386.282 574.095 383.811 574.297C381.335 574.5 378.209 574.5 374 574.5H54C49.7914 574.5 46.6649 574.5 44.1887 574.297C41.7184 574.095 39.9392 573.695 38.4171 572.92C35.6888 571.529 33.4706 569.311 32.0804 566.583C31.3049 565.061 30.9045 563.282 30.7027 560.811C30.5004 558.335 30.5 555.209 30.5 551V545C30.5 540.791 30.5004 537.665 30.7027 535.189C30.9045 532.718 31.3049 530.939 32.0804 529.417C33.4706 526.689 35.6888 524.471 38.4171 523.08C39.9392 522.305 41.7184 521.905 44.1887 521.703C46.6649 521.5 49.7914 521.5 54 521.5Z" stroke="#EEEEEE"/>
<path d="M50.791 552V543.545H53.668C55.2793 543.545 56.3809 544.594 56.3809 546.164V546.176C56.3809 547.746 55.2793 548.812 53.668 548.812H51.5879V552H50.791ZM53.4805 544.26H51.5879V548.098H53.4805C54.7812 548.098 55.5664 547.377 55.5664 546.182V546.17C55.5664 544.98 54.7812 544.26 53.4805 544.26ZM58.7305 552.111C57.5293 552.111 56.709 551.391 56.709 550.312V550.301C56.709 549.264 57.4941 548.637 58.8945 548.543L60.793 548.426V547.898C60.793 547.02 60.2363 546.486 59.2871 546.486C58.4023 546.486 57.8223 546.914 57.6934 547.605L57.6816 547.664H56.9316L56.9375 547.594C57.0547 546.545 57.9219 545.795 59.2988 545.795C60.6934 545.795 61.5664 546.58 61.5664 547.828V552H60.793V550.887H60.7695C60.4355 551.613 59.6328 552.111 58.7305 552.111ZM57.5 550.312C57.5 550.98 58.0625 551.432 58.8887 551.432C59.9551 551.432 60.793 550.682 60.793 549.709V549.035L58.9883 549.158C58.0332 549.217 57.5 549.633 57.5 550.301V550.312ZM64.959 552.111C63.5762 552.111 62.6914 551.373 62.5742 550.295L62.5684 550.242H63.3418L63.3535 550.295C63.4766 550.998 64.0449 551.455 64.9648 551.455C65.8848 551.455 66.4707 551.033 66.4707 550.395V550.389C66.4707 549.861 66.1777 549.574 65.3633 549.381L64.4434 549.158C63.2949 548.883 62.7441 548.379 62.7441 547.535V547.529C62.7441 546.516 63.6406 545.795 64.9121 545.795C66.2129 545.795 67.0449 546.551 67.1445 547.6L67.1504 547.664H66.4062L66.4004 547.623C66.3008 546.914 65.7617 546.451 64.9121 546.451C64.0859 546.451 63.5352 546.879 63.5352 547.5V547.506C63.5352 547.992 63.8633 548.303 64.666 548.496L65.5859 548.713C66.7988 549.006 67.2617 549.48 67.2617 550.336V550.342C67.2617 551.379 66.2949 552.111 64.959 552.111ZM70.3965 552.111C69.0137 552.111 68.1289 551.373 68.0117 550.295L68.0059 550.242H68.7793L68.791 550.295C68.9141 550.998 69.4824 551.455 70.4023 551.455C71.3223 551.455 71.9082 551.033 71.9082 550.395V550.389C71.9082 549.861 71.6152 549.574 70.8008 549.381L69.8809 549.158C68.7324 548.883 68.1816 548.379 68.1816 547.535V547.529C68.1816 546.516 69.0781 545.795 70.3496 545.795C71.6504 545.795 72.4824 546.551 72.582 547.6L72.5879 547.664H71.8438L71.8379 547.623C71.7383 546.914 71.1992 546.451 70.3496 546.451C69.5234 546.451 68.9727 546.879 68.9727 547.5V547.506C68.9727 547.992 69.3008 548.303 70.1035 548.496L71.0234 548.713C72.2363 549.006 72.6992 549.48 72.6992 550.336V550.342C72.6992 551.379 71.7324 552.111 70.3965 552.111ZM74.9199 552L73.1855 545.906H73.9707L75.3359 551.133H75.3535L76.8711 545.906H77.6562L79.1738 551.133H79.1914L80.5566 545.906H81.3359L79.6074 552H78.7871L77.2695 546.943H77.252L75.7402 552H74.9199ZM84.5938 552.111C82.9297 552.105 81.8164 550.887 81.8164 548.953V548.941C81.8164 547.008 82.9355 545.795 84.5938 545.795C86.2461 545.795 87.3711 547.002 87.3711 548.941V548.953C87.3711 550.893 86.252 552.111 84.5938 552.111ZM84.5996 551.42C85.7891 551.42 86.5801 550.494 86.5801 548.953V548.941C86.5801 547.4 85.7832 546.486 84.5938 546.486C83.4043 546.486 82.6133 547.406 82.6133 548.941V548.953C82.6133 550.5 83.3984 551.414 84.5996 551.42ZM88.4023 552V545.906H89.1758V547.002H89.1992C89.416 546.258 89.9551 545.795 90.6934 545.795C90.8984 545.795 91.0801 545.836 91.1738 545.865V546.621C91.0742 546.58 90.8574 546.539 90.5938 546.539C89.7266 546.539 89.1758 547.195 89.1758 548.227V552H88.4023ZM93.9336 552.111C92.3984 552.111 91.3555 550.857 91.3555 548.953V548.947C91.3555 547.043 92.4043 545.795 93.9277 545.795C94.8828 545.795 95.668 546.334 96.0137 547.178H96.0312V543.545H96.8105V552H96.0312V550.734H96.0078C95.6562 551.572 94.8945 552.111 93.9336 552.111ZM94.0801 551.42C95.2285 551.42 96.0371 550.424 96.0371 548.953V548.947C96.0371 547.482 95.2168 546.486 94.0801 546.486C92.9082 546.486 92.1523 547.453 92.1523 548.947V548.953C92.1523 550.459 92.9082 551.42 94.0801 551.42Z" fill="#777777"/>
<path d="M370 549.5C370.398 549.5 370.779 549.342 371.061 549.061C371.342 548.779 371.5 548.398 371.5 548C371.5 547.602 371.342 547.221 371.061 546.939C370.779 546.658 370.398 546.5 370 546.5C369.602 546.5 369.221 546.658 368.939 546.939C368.658 547.221 368.5 547.602 368.5 548C368.5 548.398 368.658 548.779 368.939 549.061C369.221 549.342 369.602 549.5 370 549.5Z" fill="#777777"/>
<path fill-rule="evenodd" clip-rule="evenodd" d="M363.38 548.28C363.317 548.097 363.317 547.897 363.38 547.714C363.856 546.337 364.75 545.144 365.937 544.299C367.124 543.454 368.544 543 370.001 543.001C371.458 543.002 372.878 543.457 374.064 544.302C375.25 545.148 376.143 546.343 376.618 547.72C376.681 547.903 376.681 548.103 376.618 548.286C376.142 549.663 375.248 550.857 374.061 551.702C372.874 552.547 371.453 553.001 369.996 553C368.539 553 367.119 552.545 365.933 551.699C364.747 550.852 363.854 549.657 363.379 548.28H363.38ZM373 548C373 548.796 372.684 549.559 372.121 550.121C371.559 550.684 370.796 551 370 551C369.204 551 368.441 550.684 367.879 550.121C367.316 549.559 367 548.796 367 548C367 547.204 367.316 546.441 367.879 545.879C368.441 545.316 369.204 545 370 545C370.796 545 371.559 545.316 372.121 545.879C372.684 546.441 373 547.204 373 548Z" fill="#777777"/>
<path d="M310.791 606V597.545H315.824V598.271H311.588V601.447H315.479V602.162H311.588V606H310.791ZM319.059 606.111C317.395 606.105 316.281 604.887 316.281 602.953V602.941C316.281 601.008 317.4 599.795 319.059 599.795C320.711 599.795 321.836 601.002 321.836 602.941V602.953C321.836 604.893 320.717 606.111 319.059 606.111ZM319.064 605.42C320.254 605.42 321.045 604.494 321.045 602.953V602.941C321.045 601.4 320.248 600.486 319.059 600.486C317.869 600.486 317.078 601.406 317.078 602.941V602.953C317.078 604.5 317.863 605.414 319.064 605.42ZM322.867 606V599.906H323.641V601.002H323.664C323.881 600.258 324.42 599.795 325.158 599.795C325.363 599.795 325.545 599.836 325.639 599.865V600.621C325.539 600.58 325.322 600.539 325.059 600.539C324.191 600.539 323.641 601.195 323.641 602.227V606H322.867ZM328.656 608.162C327.209 608.162 326.318 607.471 326.102 606.609L326.09 606.562H326.869L326.893 606.615C327.098 607.107 327.719 607.471 328.65 607.471C329.816 607.471 330.496 606.814 330.496 605.777V604.705H330.479C330.156 605.502 329.383 606.07 328.404 606.07C326.869 606.07 325.82 604.828 325.82 602.93V602.924C325.82 601.037 326.881 599.795 328.416 599.795C329.389 599.795 330.145 600.387 330.479 601.195H330.496V599.906H331.275V605.842C331.275 607.248 330.268 608.162 328.656 608.162ZM328.557 605.379C329.705 605.379 330.496 604.395 330.496 602.93V602.924C330.496 601.465 329.699 600.486 328.557 600.486C327.379 600.486 326.617 601.453 326.617 602.924V602.93C326.617 604.418 327.379 605.379 328.557 605.379ZM335.078 606.111C333.414 606.105 332.301 604.887 332.301 602.953V602.941C332.301 601.008 333.42 599.795 335.078 599.795C336.73 599.795 337.855 601.002 337.855 602.941V602.953C337.855 604.893 336.736 606.111 335.078 606.111ZM335.084 605.42C336.273 605.42 337.064 604.494 337.064 602.953V602.941C337.064 601.4 336.268 600.486 335.078 600.486C333.889 600.486 333.098 601.406 333.098 602.941V602.953C333.098 604.5 333.883 605.414 335.084 605.42ZM340.703 606.111C339.701 606.111 339.209 605.637 339.209 604.57V600.557H338.312V599.906H339.209V598.26H340.006V599.906H341.213V600.557H340.006V604.559C340.006 605.232 340.293 605.461 340.861 605.461C341.002 605.461 341.125 605.443 341.213 605.432V606.064C341.09 606.088 340.891 606.111 340.703 606.111ZM344.758 608.051V599.906H345.531V601.195H345.555C345.895 600.369 346.645 599.795 347.623 599.795C349.17 599.795 350.207 601.049 350.207 602.953V602.959C350.207 604.869 349.164 606.111 347.635 606.111C346.662 606.111 345.889 605.543 345.555 604.729H345.531V608.051H344.758ZM347.488 605.42C348.66 605.42 349.416 604.453 349.416 602.959V602.953C349.416 601.447 348.66 600.486 347.488 600.486C346.34 600.486 345.531 601.477 345.531 602.953V602.959C345.531 604.43 346.346 605.42 347.488 605.42ZM353.055 606.111C351.854 606.111 351.033 605.391 351.033 604.312V604.301C351.033 603.264 351.818 602.637 353.219 602.543L355.117 602.426V601.898C355.117 601.02 354.561 600.486 353.611 600.486C352.727 600.486 352.146 600.914 352.018 601.605L352.006 601.664H351.256L351.262 601.594C351.379 600.545 352.246 599.795 353.623 599.795C355.018 599.795 355.891 600.58 355.891 601.828V606H355.117V604.887H355.094C354.76 605.613 353.957 606.111 353.055 606.111ZM351.824 604.312C351.824 604.98 352.387 605.432 353.213 605.432C354.279 605.432 355.117 604.682 355.117 603.709V603.035L353.312 603.158C352.357 603.217 351.824 603.633 351.824 604.301V604.312ZM359.283 606.111C357.9 606.111 357.016 605.373 356.898 604.295L356.893 604.242H357.666L357.678 604.295C357.801 604.998 358.369 605.455 359.289 605.455C360.209 605.455 360.795 605.033 360.795 604.395V604.389C360.795 603.861 360.502 603.574 359.688 603.381L358.768 603.158C357.619 602.883 357.068 602.379 357.068 601.535V601.529C357.068 600.516 357.965 599.795 359.236 599.795C360.537 599.795 361.369 600.551 361.469 601.6L361.475 601.664H360.73L360.725 601.623C360.625 600.914 360.086 600.451 359.236 600.451C358.41 600.451 357.859 600.879 357.859 601.5V601.506C357.859 601.992 358.188 602.303 358.99 602.496L359.91 602.713C361.123 603.006 361.586 603.48 361.586 604.336V604.342C361.586 605.379 360.619 606.111 359.283 606.111ZM364.721 606.111C363.338 606.111 362.453 605.373 362.336 604.295L362.33 604.242H363.104L363.115 604.295C363.238 604.998 363.807 605.455 364.727 605.455C365.646 605.455 366.232 605.033 366.232 604.395V604.389C366.232 603.861 365.939 603.574 365.125 603.381L364.205 603.158C363.057 602.883 362.506 602.379 362.506 601.535V601.529C362.506 600.516 363.402 599.795 364.674 599.795C365.975 599.795 366.807 600.551 366.906 601.6L366.912 601.664H366.168L366.162 601.623C366.062 600.914 365.523 600.451 364.674 600.451C363.848 600.451 363.297 600.879 363.297 601.5V601.506C363.297 601.992 363.625 602.303 364.428 602.496L365.348 602.713C366.561 603.006 367.023 603.48 367.023 604.336V604.342C367.023 605.379 366.057 606.111 364.721 606.111ZM369.244 606L367.51 599.906H368.295L369.66 605.133H369.678L371.195 599.906H371.98L373.498 605.133H373.516L374.881 599.906H375.66L373.932 606H373.111L371.594 600.943H371.576L370.064 606H369.244ZM378.918 606.111C377.254 606.105 376.141 604.887 376.141 602.953V602.941C376.141 601.008 377.26 599.795 378.918 599.795C380.57 599.795 381.695 601.002 381.695 602.941V602.953C381.695 604.893 380.576 606.111 378.918 606.111ZM378.924 605.42C380.113 605.42 380.904 604.494 380.904 602.953V602.941C380.904 601.4 380.107 600.486 378.918 600.486C377.729 600.486 376.938 601.406 376.938 602.941V602.953C376.938 604.5 377.723 605.414 378.924 605.42ZM382.727 606V599.906H383.5V601.002H383.523C383.74 600.258 384.279 599.795 385.018 599.795C385.223 599.795 385.404 599.836 385.498 599.865V600.621C385.398 600.58 385.182 600.539 384.918 600.539C384.051 600.539 383.5 601.195 383.5 602.227V606H382.727ZM388.258 606.111C386.723 606.111 385.68 604.857 385.68 602.953V602.947C385.68 601.043 386.729 599.795 388.252 599.795C389.207 599.795 389.992 600.334 390.338 601.178H390.355V597.545H391.135V606H390.355V604.734H390.332C389.98 605.572 389.219 606.111 388.258 606.111ZM388.404 605.42C389.553 605.42 390.361 604.424 390.361 602.953V602.947C390.361 601.482 389.541 600.486 388.404 600.486C387.232 600.486 386.477 601.453 386.477 602.947V602.953C386.477 604.459 387.232 605.42 388.404 605.42ZM394.053 603.48V602.93C394.053 602.156 394.387 601.664 395.207 601.131C395.939 600.645 396.227 600.234 396.227 599.607V599.602C396.227 598.764 395.559 598.166 394.621 598.166C393.689 598.166 393.045 598.752 392.963 599.619L392.957 599.678H392.195L392.201 599.607C392.301 598.436 393.139 597.469 394.65 597.469C396.057 597.469 397.053 598.365 397.053 599.561V599.566C397.053 600.434 396.619 601.049 395.816 601.564C395.049 602.057 394.832 602.391 394.832 603.041V603.48H394.053ZM394.451 606.053C394.146 606.053 393.906 605.812 393.906 605.508C393.906 605.197 394.146 604.957 394.451 604.957C394.762 604.957 395.002 605.197 395.002 605.508C395.002 605.812 394.762 606.053 394.451 606.053Z" fill="#777777"/>
<path d="M140.399 721H138.909V711.136H140.297L145.41 718.409H145.465V711.136H146.955V721H145.574L140.461 713.733H140.399V721ZM151.692 721.137C149.635 721.137 148.281 719.722 148.281 717.404C148.281 715.094 149.642 713.679 151.692 713.679C153.743 713.679 155.104 715.094 155.104 717.404C155.104 719.722 153.75 721.137 151.692 721.137ZM151.692 719.92C152.854 719.92 153.6 719.004 153.6 717.404C153.6 715.812 152.848 714.896 151.692 714.896C150.537 714.896 149.785 715.812 149.785 717.404C149.785 719.004 150.537 719.92 151.692 719.92ZM156.676 712.106H158.159V713.809H159.526V714.978H158.159V718.942C158.159 719.564 158.433 719.845 159.034 719.845C159.185 719.845 159.424 719.831 159.52 719.811V720.979C159.355 721.021 159.027 721.048 158.699 721.048C157.243 721.048 156.676 720.494 156.676 719.106V714.978H155.63V713.809H156.676V712.106ZM166.103 719.954C167.135 719.954 167.941 719.243 167.941 718.307V717.739L166.171 717.849C165.289 717.91 164.79 718.3 164.79 718.915C164.79 719.544 165.31 719.954 166.103 719.954ZM165.692 721.123C164.284 721.123 163.3 720.248 163.3 718.956C163.3 717.698 164.264 716.926 165.973 716.83L167.941 716.714V716.16C167.941 715.36 167.401 714.882 166.499 714.882C165.645 714.882 165.111 715.292 164.981 715.935H163.587C163.669 714.636 164.776 713.679 166.554 713.679C168.297 713.679 169.411 714.602 169.411 716.044V721H167.996V719.817H167.962C167.545 720.617 166.636 721.123 165.692 721.123ZM173.69 721V713.809H175.099V715.019H175.133C175.454 714.219 176.206 713.686 177.177 713.686C178.175 713.686 178.899 714.198 179.187 715.094H179.221C179.59 714.219 180.438 713.686 181.463 713.686C182.885 713.686 183.814 714.629 183.814 716.058V721H182.331V716.413C182.331 715.483 181.832 714.95 180.957 714.95C180.082 714.95 179.474 715.6 179.474 716.509V721H178.024V716.304C178.024 715.477 177.498 714.95 176.664 714.95C175.789 714.95 175.167 715.634 175.167 716.557V721H173.69ZM188.251 714.868C187.219 714.868 186.494 715.654 186.419 716.741H190.015C189.98 715.641 189.283 714.868 188.251 714.868ZM190.008 718.888H191.409C191.204 720.2 189.96 721.137 188.312 721.137C186.2 721.137 184.922 719.708 184.922 717.438C184.922 715.183 186.221 713.679 188.251 713.679C190.247 713.679 191.491 715.087 191.491 717.268V717.773H186.412V717.862C186.412 719.113 187.164 719.94 188.347 719.94C189.188 719.94 189.81 719.517 190.008 718.888ZM192.64 721V713.809H194.048V715.019H194.082C194.403 714.219 195.155 713.686 196.126 713.686C197.124 713.686 197.849 714.198 198.136 715.094H198.17C198.539 714.219 199.387 713.686 200.412 713.686C201.834 713.686 202.764 714.629 202.764 716.058V721H201.28V716.413C201.28 715.483 200.781 714.95 199.906 714.95C199.031 714.95 198.423 715.6 198.423 716.509V721H196.974V716.304C196.974 715.477 196.447 714.95 195.613 714.95C194.738 714.95 194.116 715.634 194.116 716.557V721H192.64ZM208.021 721.123C206.968 721.123 206.154 720.61 205.71 719.776H205.683V721H204.247V711.136H205.724V715.032H205.758C206.188 714.198 207.009 713.692 208.027 713.692C209.839 713.692 211.021 715.128 211.021 717.404C211.021 719.688 209.846 721.123 208.021 721.123ZM207.624 714.937C206.503 714.937 205.717 715.921 205.717 717.404C205.717 718.901 206.503 719.872 207.624 719.872C208.786 719.872 209.504 718.929 209.504 717.404C209.504 715.894 208.786 714.937 207.624 714.937ZM215.185 714.868C214.152 714.868 213.428 715.654 213.353 716.741H216.948C216.914 715.641 216.217 714.868 215.185 714.868ZM216.941 718.888H218.343C218.138 720.2 216.894 721.137 215.246 721.137C213.134 721.137 211.855 719.708 211.855 717.438C211.855 715.183 213.154 713.679 215.185 713.679C217.181 713.679 218.425 715.087 218.425 717.268V717.773H213.346V717.862C213.346 719.113 214.098 719.94 215.28 719.94C216.121 719.94 216.743 719.517 216.941 718.888ZM219.573 721V713.809H220.981V715.032H221.016C221.255 714.191 221.897 713.692 222.745 713.692C222.957 713.692 223.142 713.727 223.251 713.747V715.121C223.135 715.073 222.875 715.039 222.588 715.039C221.638 715.039 221.05 715.675 221.05 716.693V721H219.573ZM226.655 713.781C226.717 712.229 227.776 711.054 229.759 711.054C231.563 711.054 232.78 712.127 232.78 713.59C232.78 714.649 232.247 715.395 231.345 715.935C230.463 716.454 230.21 716.816 230.21 717.521V717.938H228.795L228.788 717.391C228.754 716.427 229.171 715.812 230.107 715.251C230.935 714.752 231.229 714.355 231.229 713.651C231.229 712.879 230.62 712.312 229.684 712.312C228.74 712.312 228.132 712.879 228.07 713.781H226.655ZM229.513 721.103C229.014 721.103 228.617 720.72 228.617 720.221C228.617 719.722 229.014 719.339 229.513 719.339C230.025 719.339 230.415 719.722 230.415 720.221C230.415 720.72 230.025 721.103 229.513 721.103Z" fill="#777777"/>
<path d="M241.069 721.164C239.36 721.164 238.396 720.104 238.294 718.689L238.287 718.594H239.518L239.524 718.662C239.6 719.407 240.085 720.029 241.062 720.029C242.156 720.029 242.744 719.38 242.744 718.177V711.136H243.975V718.19C243.975 720.057 242.895 721.164 241.069 721.164ZM248.65 721.137C246.675 721.137 245.355 719.708 245.355 717.445V717.432C245.355 715.169 246.682 713.754 248.644 713.754C250.605 713.754 251.938 715.162 251.938 717.432V717.445C251.938 719.715 250.612 721.137 248.65 721.137ZM248.657 720.084C249.908 720.084 250.722 719.113 250.722 717.445V717.432C250.722 715.764 249.901 714.807 248.644 714.807C247.406 714.807 246.572 715.771 246.572 717.432V717.445C246.572 719.12 247.399 720.084 248.657 720.084ZM253.812 712.688C253.401 712.688 253.066 712.353 253.066 711.942C253.066 711.525 253.401 711.197 253.812 711.197C254.229 711.197 254.557 711.525 254.557 711.942C254.557 712.353 254.229 712.688 253.812 712.688ZM253.217 721V713.891H254.406V721H253.217ZM256.026 721V713.891H257.216V714.902H257.243C257.626 714.239 258.351 713.754 259.431 713.754C260.989 713.754 261.892 714.766 261.892 716.386V721H260.702V716.598C260.702 715.442 260.162 714.807 259.068 714.807C257.947 714.807 257.216 715.606 257.216 716.816V721H256.026ZM266.28 721V713.891H267.47V714.902H267.497C267.88 714.239 268.604 713.754 269.685 713.754C271.243 713.754 272.146 714.766 272.146 716.386V721H270.956V716.598C270.956 715.442 270.416 714.807 269.322 714.807C268.201 714.807 267.47 715.606 267.47 716.816V721H266.28ZM276.609 721.137C274.634 721.137 273.314 719.708 273.314 717.445V717.432C273.314 715.169 274.641 713.754 276.603 713.754C278.564 713.754 279.897 715.162 279.897 717.432V717.445C279.897 719.715 278.571 721.137 276.609 721.137ZM276.616 720.084C277.867 720.084 278.681 719.113 278.681 717.445V717.432C278.681 715.764 277.86 714.807 276.603 714.807C275.365 714.807 274.531 715.771 274.531 717.432V717.445C274.531 719.12 275.358 720.084 276.616 720.084ZM282.509 721L280.52 713.891H281.702L283.124 719.674H283.151L284.758 713.891H285.906L287.52 719.674H287.547L288.969 713.891H290.145L288.162 721H286.952L285.346 715.497H285.318L283.719 721H282.509Z" fill="#777777"/>
<path d="M31 803L398 803" stroke="#EEEEEE"/>
<rect width="123" height="17" transform="translate(153 795)" fill="white"/>
<path d="M178.127 808.164C175.324 808.164 173.574 806.202 173.574 803.071V803.058C173.574 799.934 175.331 797.972 178.127 797.972C180.916 797.972 182.666 799.934 182.666 803.058V803.071C182.666 806.202 180.923 808.164 178.127 808.164ZM178.127 807.029C180.157 807.029 181.408 805.478 181.408 803.071V803.058C181.408 800.638 180.137 799.106 178.127 799.106C176.11 799.106 174.832 800.631 174.832 803.058V803.071C174.832 805.498 176.104 807.029 178.127 807.029ZM184.013 808V800.891H185.202V802.094H185.229C185.469 801.273 186.084 800.754 186.884 800.754C187.089 800.754 187.267 800.788 187.362 800.802V801.957C187.267 801.923 187.014 801.889 186.727 801.889C185.804 801.889 185.202 802.531 185.202 803.611V808H184.013ZM193.727 808.137C192.052 808.137 191.04 807.282 190.896 806.011L190.89 805.949H192.079L192.093 806.018C192.236 806.729 192.763 807.146 193.733 807.146C194.697 807.146 195.271 806.742 195.271 806.1V806.093C195.271 805.58 195.005 805.293 194.198 805.095L193.07 804.821C191.73 804.5 191.081 803.878 191.081 802.853V802.846C191.081 801.622 192.154 800.754 193.692 800.754C195.251 800.754 196.242 801.663 196.331 802.853L196.338 802.941H195.203L195.196 802.894C195.101 802.203 194.574 801.745 193.692 801.745C192.831 801.745 192.298 802.162 192.298 802.791V802.798C192.298 803.283 192.619 803.618 193.405 803.81L194.533 804.083C195.969 804.432 196.488 804.999 196.488 806.011V806.018C196.488 807.262 195.312 808.137 193.727 808.137ZM198.396 799.688C197.985 799.688 197.65 799.353 197.65 798.942C197.65 798.525 197.985 798.197 198.396 798.197C198.812 798.197 199.141 798.525 199.141 798.942C199.141 799.353 198.812 799.688 198.396 799.688ZM197.801 808V800.891H198.99V808H197.801ZM203.618 810.529C201.861 810.529 200.754 809.702 200.521 808.649L200.508 808.588H201.704L201.731 808.649C201.957 809.162 202.634 809.477 203.604 809.477C204.855 809.477 205.566 808.786 205.566 807.686V806.776H205.539C205.115 807.562 204.295 808.068 203.276 808.068C201.485 808.068 200.262 806.626 200.262 804.404V804.397C200.262 802.189 201.499 800.754 203.304 800.754C204.309 800.754 205.102 801.301 205.539 802.094H205.566V800.891H206.756V807.802C206.756 809.449 205.546 810.529 203.618 810.529ZM203.536 807.016C204.746 807.016 205.566 805.983 205.566 804.404V804.397C205.566 802.832 204.739 801.807 203.536 801.807C202.271 801.807 201.479 802.818 201.479 804.397V804.404C201.479 806.018 202.271 807.016 203.536 807.016ZM208.294 808V800.891H209.483V801.902H209.511C209.894 801.239 210.618 800.754 211.698 800.754C213.257 800.754 214.159 801.766 214.159 803.386V808H212.97V803.598C212.97 802.442 212.43 801.807 211.336 801.807C210.215 801.807 209.483 802.606 209.483 803.816V808H208.294ZM219.218 799.688C218.808 799.688 218.473 799.353 218.473 798.942C218.473 798.525 218.808 798.197 219.218 798.197C219.635 798.197 219.963 798.525 219.963 798.942C219.963 799.353 219.635 799.688 219.218 799.688ZM218.623 808V800.891H219.812V808H218.623ZM221.433 808V800.891H222.622V801.902H222.649C223.032 801.239 223.757 800.754 224.837 800.754C226.396 800.754 227.298 801.766 227.298 803.386V808H226.108V803.598C226.108 802.442 225.568 801.807 224.475 801.807C223.354 801.807 222.622 802.606 222.622 803.816V808H221.433ZM233.095 808L231.105 800.891H232.288L233.71 806.674H233.737L235.344 800.891H236.492L238.105 806.674H238.133L239.555 800.891H240.73L238.748 808H237.538L235.932 802.497H235.904L234.305 808H233.095ZM242.378 799.688C241.968 799.688 241.633 799.353 241.633 798.942C241.633 798.525 241.968 798.197 242.378 798.197C242.795 798.197 243.123 798.525 243.123 798.942C243.123 799.353 242.795 799.688 242.378 799.688ZM241.783 808V800.891H242.973V808H241.783ZM246.903 808.137C245.598 808.137 244.955 807.549 244.955 806.188V801.875H243.916V800.891H244.955V798.97H246.186V800.891H247.539V801.875H246.186V806.182C246.186 806.94 246.521 807.152 247.156 807.152C247.3 807.152 247.437 807.132 247.539 807.125V808.089C247.389 808.109 247.136 808.137 246.903 808.137ZM248.879 808V798.136H250.068V802.025H250.096C250.479 801.226 251.251 800.754 252.311 800.754C253.821 800.754 254.854 801.923 254.854 803.646V808H253.664V803.851C253.664 802.565 253.008 801.807 251.9 801.807C250.8 801.807 250.068 802.641 250.068 803.851V808H248.879Z" fill="#777777"/>
<rect x="30.5" y="832.5" width="178" height="53" rx="9.5" stroke="#777777"/>
<g clip-path="url(#clip1_141_1020)">
<path d="M82.5 859C82.5 852.376 77.124 847 70.5 847C63.876 847 58.5 852.376 58.5 859C58.5 864.808 62.628 869.644 68.1 870.76V862.6H65.7V859H68.1V856C68.1 853.684 69.984 851.8 72.3 851.8H75.3V855.4H72.9C72.24 855.4 71.7 855.94 71.7 856.6V859H75.3V862.6H71.7V870.94C77.76 870.34 82.5 865.228 82.5 859Z" fill="#777777"/>
</g>
<path d="M98.8672 866V851.908H107.422V853.49H100.625V858.334H106.865V859.896H100.625V866H98.8672ZM111.455 866.195C109.434 866.195 108.076 864.975 108.076 863.129V863.109C108.076 861.381 109.424 860.297 111.758 860.16L114.668 859.994V859.145C114.668 857.904 113.857 857.152 112.441 857.152C111.133 857.152 110.312 857.777 110.117 858.686L110.098 858.773H108.457L108.467 858.666C108.613 856.996 110.068 855.648 112.461 855.648C114.863 855.648 116.367 856.947 116.367 858.979V866H114.668V864.35H114.629C114.033 865.463 112.812 866.195 111.455 866.195ZM109.814 863.129C109.814 864.105 110.615 864.721 111.836 864.721C113.438 864.721 114.668 863.617 114.668 862.143V861.312L111.953 861.479C110.596 861.557 109.814 862.162 109.814 863.109V863.129ZM122.734 866.195C119.854 866.195 118.027 864.145 118.027 860.912V860.902C118.027 857.699 119.893 855.648 122.715 855.648C125.244 855.648 126.738 857.328 126.953 859.066L126.963 859.145H125.303L125.283 859.066C125.029 858.051 124.209 857.152 122.715 857.152C120.947 857.152 119.766 858.617 119.766 860.922V860.932C119.766 863.295 120.977 864.691 122.734 864.691C124.121 864.691 125.01 863.91 125.293 862.777L125.312 862.699H126.982L126.973 862.768C126.699 864.701 125.029 866.195 122.734 866.195ZM132.725 866.195C129.805 866.195 128.047 864.154 128.047 860.961V860.951C128.047 857.807 129.844 855.648 132.617 855.648C135.391 855.648 137.08 857.709 137.08 860.756V861.381H129.766C129.805 863.471 130.957 864.691 132.764 864.691C134.053 864.691 134.961 864.047 135.254 863.178L135.283 863.09H136.953L136.934 863.188C136.602 864.867 134.941 866.195 132.725 866.195ZM132.607 857.152C131.133 857.152 129.98 858.158 129.795 860.053H135.352C135.186 858.08 134.092 857.152 132.607 857.152ZM143.848 866.195C142.393 866.195 141.26 865.463 140.625 864.281H140.586V866H138.887V851.908H140.586V857.543H140.625C141.26 856.371 142.441 855.648 143.877 855.648C146.426 855.648 148.164 857.709 148.164 860.912V860.922C148.164 864.125 146.445 866.195 143.848 866.195ZM143.516 864.691C145.312 864.691 146.426 863.256 146.426 860.922V860.912C146.426 858.598 145.312 857.152 143.516 857.152C141.807 857.152 140.576 858.646 140.576 860.912V860.922C140.576 863.197 141.797 864.691 143.516 864.691ZM154.082 866.195C151.26 866.195 149.375 864.154 149.375 860.922V860.902C149.375 857.67 151.27 855.648 154.072 855.648C156.875 855.648 158.779 857.66 158.779 860.902V860.922C158.779 864.164 156.885 866.195 154.082 866.195ZM154.092 864.691C155.879 864.691 157.041 863.305 157.041 860.922V860.902C157.041 858.52 155.869 857.152 154.072 857.152C152.305 857.152 151.113 858.529 151.113 860.902V860.922C151.113 863.314 152.295 864.691 154.092 864.691ZM164.707 866.195C161.885 866.195 160 864.154 160 860.922V860.902C160 857.67 161.895 855.648 164.697 855.648C167.5 855.648 169.404 857.66 169.404 860.902V860.922C169.404 864.164 167.51 866.195 164.707 866.195ZM164.717 864.691C166.504 864.691 167.666 863.305 167.666 860.922V860.902C167.666 858.52 166.494 857.152 164.697 857.152C162.93 857.152 161.738 858.529 161.738 860.902V860.922C161.738 863.314 162.92 864.691 164.717 864.691ZM171.26 866V851.908H172.959V860.326H172.998L177.451 855.844H179.512L175.107 860.229L179.648 866H177.676L173.906 861.264L172.959 862.172V866H171.26Z" fill="#777777"/>
<rect x="219.5" y="832.5" width="178" height="53" rx="9.5" fill="white"/>
<rect x="219.5" y="832.5" width="178" height="53" rx="9.5" stroke="#777777"/>
<rect width="24" height="24" transform="translate(257.5 847)" fill="white"/>
<path fill-rule="evenodd" clip-rule="evenodd" d="M280.54 859.261C280.54 858.446 280.467 857.662 280.331 856.909H269.5V861.357H275.689C275.422 862.795 274.612 864.013 273.394 864.828V867.714H277.111C279.285 865.712 280.54 862.764 280.54 859.261Z" fill="#777777"/>
<path fill-rule="evenodd" clip-rule="evenodd" d="M269.5 870.5C272.605 870.5 275.208 869.47 277.111 867.714L273.394 864.828C272.365 865.518 271.047 865.926 269.5 865.926C266.505 865.926 263.97 863.903 263.065 861.185H259.223V864.164C261.115 867.923 265.005 870.5 269.5 870.5Z" fill="#777777"/>
<path fill-rule="evenodd" clip-rule="evenodd" d="M263.065 861.185C262.835 860.495 262.705 859.758 262.705 859C262.705 858.242 262.835 857.505 263.065 856.815V853.836H259.223C258.444 855.388 258 857.144 258 859C258 860.856 258.444 862.612 259.223 864.165L263.065 861.185Z" fill="#777777"/>
<path fill-rule="evenodd" clip-rule="evenodd" d="M269.5 852.074C271.188 852.074 272.704 852.654 273.896 853.794L277.195 850.495C275.203 848.64 272.6 847.5 269.5 847.5C265.005 847.5 261.115 850.077 259.223 853.835L263.065 856.815C263.97 854.097 266.505 852.074 269.5 852.074Z" fill="#777777"/>
<path d="M309.938 860.141C309.938 863.959 307.682 866.234 303.863 866.234C299.83 866.234 297.291 863.412 297.291 858.891C297.291 854.447 299.82 851.674 303.834 851.674C306.969 851.674 309.342 853.529 309.83 856.342H307.584C307.057 854.594 305.68 853.588 303.844 853.588C301.148 853.588 299.527 855.561 299.527 858.871C299.527 862.24 301.197 864.32 303.883 864.32C306.168 864.32 307.75 862.855 307.779 860.717V860.473H304.137V858.705H309.938V860.141ZM316.236 866.195C313.297 866.195 311.363 864.174 311.363 860.863C311.363 857.562 313.307 855.541 316.236 855.541C319.166 855.541 321.109 857.562 321.109 860.863C321.109 864.174 319.176 866.195 316.236 866.195ZM316.236 864.457C317.896 864.457 318.961 863.148 318.961 860.863C318.961 858.588 317.887 857.279 316.236 857.279C314.586 857.279 313.512 858.588 313.512 860.863C313.512 863.148 314.586 864.457 316.236 864.457ZM327.154 866.195C324.215 866.195 322.281 864.174 322.281 860.863C322.281 857.562 324.225 855.541 327.154 855.541C330.084 855.541 332.027 857.562 332.027 860.863C332.027 864.174 330.094 866.195 327.154 866.195ZM327.154 864.457C328.814 864.457 329.879 863.148 329.879 860.863C329.879 858.588 328.805 857.279 327.154 857.279C325.504 857.279 324.43 858.588 324.43 860.863C324.43 863.148 325.504 864.457 327.154 864.457ZM338.033 864.291C339.684 864.291 340.768 862.953 340.768 860.834C340.768 858.725 339.684 857.338 338.033 857.338C336.412 857.338 335.357 858.695 335.357 860.834C335.357 862.982 336.412 864.291 338.033 864.291ZM338.053 869.867C335.631 869.867 333.834 868.578 333.57 866.801H335.689C335.992 867.66 336.93 868.227 338.131 868.227C339.781 868.227 340.758 867.289 340.758 865.883V864.193H340.719C340.143 865.307 338.932 866.039 337.467 866.039C334.889 866.039 333.199 864.027 333.199 860.824C333.199 857.592 334.879 855.561 337.516 855.561C338.971 855.561 340.162 856.293 340.787 857.484H340.826V855.727H342.877V865.814C342.877 868.266 340.982 869.867 338.053 869.867ZM345.045 866V851.908H347.154V866H345.045ZM353.619 857.24C352.145 857.24 351.109 858.363 351.002 859.916H356.139C356.09 858.344 355.094 857.24 353.619 857.24ZM356.129 862.982H358.131C357.838 864.857 356.061 866.195 353.707 866.195C350.689 866.195 348.863 864.154 348.863 860.912C348.863 857.689 350.719 855.541 353.619 855.541C356.471 855.541 358.248 857.553 358.248 860.668V861.391H350.992V861.518C350.992 863.305 352.066 864.486 353.756 864.486C354.957 864.486 355.846 863.881 356.129 862.982Z" fill="#777777"/>
</g>
<defs>
<clipPath id="clip0_141_1020">
<rect width="428" height="926" rx="40" fill="white"/>
</clipPath>
<clipPath id="clip1_141_1020">
<rect width="24" height="24" fill="white" transform="translate(58.5 847)"/>
</clipPath>
</defs>
</svg>
