<svg width="30" height="30" viewBox="0 0 30 30" fill="none" xmlns="http://www.w3.org/2000/svg">
<rect x="2" y="2" width="26" height="26" rx="13" fill="white"/>
<path d="M14.553 6C15.6508 6 16.5438 6.16304 17.232 6.48913C17.9201 6.79891 18.5509 7.16576 19.1244 7.58968C19.321 7.75272 19.4849 7.83424 19.616 7.83424C19.9273 7.83424 20.1321 7.33696 20.2304 6.34239H20.7957C20.7629 6.96196 20.7384 7.72011 20.722 8.61685C20.7056 9.51359 20.6974 10.6957 20.6974 12.163H20.1321C20.0174 11.2826 19.8536 10.4918 19.6406 9.79076C19.4275 9.08967 19.0425 8.49457 18.4854 8.00543C18.0594 7.54891 17.5187 7.19837 16.8633 6.95381C16.2243 6.69294 15.5771 6.5625 14.9217 6.5625C14.0533 6.5625 13.2913 6.79076 12.6359 7.24728C11.9969 7.6875 11.4562 8.29891 11.0138 9.08152C10.5878 9.84783 10.2683 10.7446 10.0553 11.7717C9.84229 12.7826 9.73579 13.8668 9.73579 15.0245C9.73579 17.9592 10.1618 20.1114 11.0138 21.481C11.8822 22.8342 13.1521 23.5109 14.8233 23.5109C15.2821 23.5109 15.6754 23.4538 16.0031 23.3397C16.3472 23.2092 16.6257 23.0788 16.8387 22.9484C17.1009 22.769 17.2729 22.5815 17.3548 22.3859C17.4368 22.1902 17.4777 21.9457 17.4777 21.6522V19.2554C17.4777 18.538 17.4122 18.0082 17.2811 17.6658C17.15 17.3071 16.9042 17.0625 16.5438 16.9321C16.1997 16.8016 15.6836 16.7283 14.9954 16.712V16.2228C15.3231 16.2391 15.7081 16.2554 16.1505 16.2717C16.6093 16.2717 17.0845 16.2799 17.576 16.2962C18.084 16.2962 18.5428 16.2962 18.9524 16.2962C19.5914 16.2962 20.1731 16.288 20.6974 16.2717C21.2217 16.2554 21.6559 16.2391 22 16.2228V16.712C21.6723 16.7283 21.4183 16.7853 21.2381 16.8832C21.0742 16.981 20.9677 17.1766 20.9186 17.4701C20.8694 17.7636 20.8449 18.212 20.8449 18.8152V23.6576H20.3533C20.3369 23.3804 20.2714 23.0788 20.1567 22.7527C20.042 22.4266 19.8699 22.2636 19.6406 22.2636C19.5259 22.2636 19.3948 22.2962 19.2473 22.3614C19.0998 22.4103 18.8459 22.5326 18.4854 22.7283C17.9119 23.1033 17.2975 23.413 16.6421 23.6576C16.0031 23.8859 15.2985 24 14.5284 24C12.6933 24 11.1367 23.6576 9.85868 22.9728C8.59703 22.2717 7.6385 21.269 6.9831 19.9647C6.3277 18.644 6 17.0707 6 15.2446C6 13.3696 6.36866 11.7391 7.10599 10.3533C7.84332 8.96739 8.851 7.89946 10.129 7.14946C11.4235 6.38315 12.8981 6 14.553 6Z" fill="#444444"/>
</svg>
